<svg id="svg" version="1.1" xmlns="http://www.w3.org/2000/svg" xmlns:xlink="http://www.w3.org/1999/xlink" width="400" height="400" viewBox="0, 0, 400,400"><g id="svgg"><path id="path0" d="M207.200 23.458 C 191.857 25.493,182.287 29.100,161.189 40.799 C 151.699 46.062,148.369 49.581,145.151 57.750 C 144.123 60.360,143.935 61.129,143.182 65.800 C 142.756 68.440,142.139 71.818,141.809 73.306 C 141.479 74.794,140.942 78.052,140.615 80.546 C 140.020 85.088,139.355 88.108,138.151 91.744 C 137.556 93.540,137.595 97.277,138.227 98.927 C 138.361 99.276,140.680 99.367,147.104 99.273 C 157.681 99.119,158.635 99.240,160.869 101.016 C 161.870 101.812,163.056 102.394,163.680 102.396 C 165.018 102.401,168.233 103.232,171.400 104.392 C 172.720 104.876,174.393 105.418,175.118 105.598 C 178.885 106.530,184.487 110.220,186.436 113.053 C 187.899 115.179,190.436 120.418,190.193 120.812 C 188.476 123.589,172.106 125.550,165.000 123.829 C 150.501 120.318,133.195 122.259,130.419 127.708 C 126.794 134.820,121.765 143.160,118.646 147.228 C 114.956 152.041,112.574 157.607,110.978 165.145 C 109.623 171.540,109.906 181.708,111.617 188.200 C 111.849 189.080,112.210 191.015,112.420 192.500 C 112.629 193.985,112.980 196.460,113.200 198.000 C 113.420 199.540,113.780 202.060,114.000 203.600 C 114.406 206.445,114.890 209.715,115.596 214.400 C 115.831 215.959,115.891 222.127,115.746 229.800 C 115.497 242.921,115.651 245.020,117.224 250.000 C 118.825 255.068,120.061 260.206,120.399 263.200 C 120.585 264.850,121.006 268.000,121.335 270.200 C 121.663 272.400,122.142 276.720,122.399 279.800 C 123.256 290.078,126.557 299.983,131.131 306.000 C 131.717 306.770,133.041 308.660,134.075 310.200 C 137.214 314.876,137.761 315.293,138.240 313.383 C 138.565 312.087,139.285 312.312,139.801 313.869 C 140.580 316.222,140.952 316.400,145.107 316.400 L 148.917 316.400 150.787 318.100 C 151.816 319.035,153.095 320.138,153.629 320.552 C 154.163 320.965,155.156 321.828,155.836 322.468 C 157.008 323.573,157.165 323.611,158.916 323.219 C 161.219 322.703,162.463 323.126,164.518 325.124 L 166.036 326.600 170.508 326.738 C 174.669 326.866,175.078 326.952,176.390 327.972 C 179.841 330.657,184.299 332.119,192.445 333.239 C 196.677 333.821,199.202 333.599,201.765 332.423 C 202.846 331.927,204.736 331.371,205.965 331.189 C 207.194 331.006,209.100 330.576,210.200 330.233 C 212.520 329.509,213.200 329.452,213.200 329.981 C 213.200 330.496,210.130 332.535,208.400 333.168 C 206.955 333.697,205.857 334.127,204.300 334.774 C 197.823 337.463,189.693 338.386,172.256 338.411 C 168.045 338.417,162.890 338.598,160.800 338.813 C 158.710 339.029,155.470 339.317,153.600 339.453 C 151.292 339.622,149.783 339.953,148.901 340.483 C 147.657 341.231,147.515 341.236,145.608 340.603 C 142.319 339.510,141.343 340.239,139.656 345.049 L 138.556 348.188 139.488 351.775 C 140.624 356.151,141.700 358.056,144.489 360.628 C 147.322 363.241,147.386 363.381,146.368 364.758 C 145.156 366.397,145.578 368.379,147.599 370.544 L 149.145 372.200 159.995 372.070 C 176.476 371.873,183.925 371.064,193.800 368.400 C 195.560 367.925,197.630 367.383,198.400 367.195 C 201.889 366.343,202.790 366.064,204.015 365.453 C 204.734 365.094,205.577 364.800,205.887 364.800 C 206.198 364.800,207.295 364.454,208.326 364.032 C 209.357 363.610,212.180 362.519,214.600 361.608 C 221.690 358.938,223.944 357.969,228.600 355.590 C 238.740 350.408,243.004 347.226,247.590 341.422 C 250.156 338.174,252.357 331.661,252.386 327.228 C 252.404 324.517,252.936 322.946,255.040 319.400 C 258.456 313.642,262.000 305.776,262.000 303.952 C 262.000 302.419,258.829 303.257,254.780 305.861 C 240.015 315.355,237.459 315.344,250.287 305.841 C 254.958 302.381,268.800 287.097,268.800 285.400 C 268.800 285.259,269.301 284.392,269.912 283.472 C 271.058 281.750,271.597 280.677,272.360 278.600 C 272.649 277.815,272.777 273.593,272.732 266.400 C 272.668 256.205,272.726 255.180,273.526 252.400 C 274.001 250.750,275.022 246.813,275.796 243.652 C 276.601 240.368,277.992 236.095,279.042 233.682 C 282.313 226.170,282.933 220.363,281.241 213.071 C 280.824 211.272,280.268 208.720,280.005 207.400 C 279.743 206.080,279.350 204.100,279.132 203.000 C 278.330 198.956,276.658 193.727,275.297 191.010 C 274.008 188.437,273.873 187.817,273.556 183.010 C 273.367 180.145,273.096 176.250,272.954 174.356 C 272.583 169.433,274.721 163.028,277.903 159.529 C 281.553 155.514,283.704 151.689,283.411 149.733 C 283.223 148.480,283.313 147.686,283.711 147.073 C 286.256 143.162,284.851 140.480,279.800 139.606 C 278.260 139.340,276.280 138.945,275.400 138.729 C 274.520 138.513,273.170 138.182,272.400 137.992 C 271.630 137.803,269.830 137.446,268.400 137.200 C 264.559 136.538,259.885 135.206,258.252 134.308 C 257.784 134.051,256.500 133.715,255.400 133.563 C 254.300 133.411,252.320 133.069,251.000 132.803 C 249.680 132.537,247.790 132.176,246.800 132.000 C 241.384 131.038,240.432 130.802,239.200 130.114 C 238.460 129.700,237.786 129.158,237.703 128.909 C 237.470 128.210,241.505 125.207,244.400 123.925 C 245.830 123.292,247.519 122.485,248.153 122.133 C 249.726 121.259,251.521 120.868,256.042 120.415 C 259.870 120.031,260.789 120.111,266.600 121.325 C 287.047 125.600,293.070 121.977,288.091 108.400 C 287.567 106.970,286.855 104.900,286.509 103.800 C 280.532 84.780,277.729 79.409,265.612 63.755 C 262.054 59.160,257.942 53.815,256.472 51.879 C 255.002 49.942,252.450 46.580,250.800 44.407 C 249.150 42.234,247.350 39.684,246.800 38.738 C 245.581 36.643,238.737 29.439,236.787 28.199 C 231.411 24.779,215.938 22.299,207.200 23.458 M238.400 315.715 C 238.400 316.330,234.093 319.027,233.716 318.649 C 233.352 318.285,234.009 317.699,236.265 316.376 C 238.566 315.025,238.400 315.077,238.400 315.715 " stroke="none" fill="#fbfbfb" fill-rule="evenodd"></path><path id="path1" d="M0.000 200.000 L 0.000 400.000 200.000 400.000 L 400.000 400.000 400.000 200.000 L 400.000 0.000 200.000 0.000 L 0.000 0.000 0.000 200.000 M225.600 24.341 C 235.134 26.352,242.505 31.357,246.800 38.738 C 247.350 39.684,249.150 42.234,250.800 44.407 C 252.450 46.580,255.002 49.942,256.472 51.879 C 257.942 53.815,262.054 59.160,265.612 63.755 C 277.729 79.409,280.532 84.780,286.509 103.800 C 286.855 104.900,287.567 106.970,288.091 108.400 C 293.070 121.977,287.047 125.600,266.600 121.325 C 260.789 120.111,259.870 120.031,256.042 120.415 C 251.521 120.868,249.726 121.259,248.153 122.133 C 247.519 122.485,245.830 123.292,244.400 123.925 C 241.505 125.207,237.470 128.210,237.703 128.909 C 237.786 129.158,238.460 129.700,239.200 130.114 C 240.432 130.802,241.384 131.038,246.800 132.000 C 247.790 132.176,249.680 132.537,251.000 132.803 C 252.320 133.069,254.300 133.411,255.400 133.563 C 256.500 133.715,257.784 134.051,258.252 134.308 C 259.885 135.206,264.559 136.538,268.400 137.200 C 269.830 137.446,271.630 137.803,272.400 137.992 C 273.170 138.182,274.520 138.513,275.400 138.729 C 276.280 138.945,278.260 139.340,279.800 139.606 C 284.851 140.480,286.256 143.162,283.711 147.073 C 283.313 147.686,283.223 148.480,283.411 149.733 C 283.704 151.689,281.553 155.514,277.903 159.529 C 274.721 163.028,272.583 169.433,272.954 174.356 C 273.096 176.250,273.367 180.145,273.556 183.010 C 273.873 187.817,274.008 188.437,275.297 191.010 C 276.658 193.727,278.330 198.956,279.132 203.000 C 279.350 204.100,279.743 206.080,280.005 207.400 C 280.268 208.720,280.824 211.272,281.241 213.071 C 282.933 220.363,282.313 226.170,279.042 233.682 C 277.992 236.095,276.601 240.368,275.796 243.652 C 275.022 246.813,274.001 250.750,273.526 252.400 C 272.726 255.180,272.668 256.205,272.732 266.400 C 272.777 273.593,272.649 277.815,272.360 278.600 C 271.597 280.677,271.058 281.750,269.912 283.472 C 269.301 284.392,268.800 285.259,268.800 285.400 C 268.800 287.097,254.958 302.381,250.287 305.841 C 237.459 315.344,240.015 315.355,254.780 305.861 C 258.829 303.257,262.000 302.419,262.000 303.952 C 262.000 305.776,258.456 313.642,255.040 319.400 C 252.936 322.946,252.404 324.517,252.386 327.228 C 252.357 331.661,250.156 338.174,247.590 341.422 C 241.338 349.336,231.970 355.068,214.600 361.608 C 212.180 362.519,209.357 363.610,208.326 364.032 C 207.295 364.454,206.198 364.800,205.887 364.800 C 205.577 364.800,204.734 365.094,204.015 365.453 C 202.790 366.064,201.889 366.343,198.400 367.195 C 197.630 367.383,195.560 367.925,193.800 368.400 C 183.925 371.064,176.476 371.873,159.995 372.070 L 149.145 372.200 147.599 370.544 C 145.578 368.379,145.156 366.397,146.368 364.758 C 147.386 363.381,147.322 363.241,144.489 360.628 C 141.700 358.056,140.624 356.151,139.488 351.775 L 138.556 348.188 139.656 345.049 C 141.343 340.239,142.319 339.510,145.608 340.603 C 147.515 341.236,147.657 341.231,148.901 340.483 C 149.783 339.953,151.292 339.622,153.600 339.453 C 155.470 339.317,158.710 339.029,160.800 338.813 C 162.890 338.598,168.045 338.417,172.256 338.411 C 189.693 338.386,197.823 337.463,204.300 334.774 C 205.857 334.127,206.955 333.697,208.400 333.168 C 210.130 332.535,213.200 330.496,213.200 329.981 C 213.200 329.452,212.520 329.509,210.200 330.233 C 209.100 330.576,207.194 331.006,205.965 331.189 C 204.736 331.371,202.846 331.927,201.765 332.423 C 199.202 333.599,196.677 333.821,192.445 333.239 C 184.299 332.119,179.841 330.657,176.390 327.972 C 175.078 326.952,174.669 326.866,170.508 326.738 L 166.036 326.600 164.518 325.124 C 162.463 323.126,161.219 322.703,158.916 323.219 C 157.165 323.611,157.008 323.573,155.836 322.468 C 155.156 321.828,154.163 320.965,153.629 320.552 C 153.095 320.138,151.816 319.035,150.787 318.100 L 148.917 316.400 145.107 316.400 C 140.952 316.400,140.580 316.222,139.801 313.869 C 139.285 312.312,138.565 312.087,138.240 313.383 C 137.761 315.293,137.214 314.876,134.075 310.200 C 133.041 308.660,131.717 306.770,131.131 306.000 C 126.557 299.983,123.256 290.078,122.399 279.800 C 122.142 276.720,121.663 272.400,121.335 270.200 C 121.006 268.000,120.585 264.850,120.399 263.200 C 120.061 260.206,118.825 255.068,117.224 250.000 C 115.651 245.020,115.497 242.921,115.746 229.800 C 115.891 222.127,115.831 215.959,115.596 214.400 C 114.890 209.715,114.406 206.445,114.000 203.600 C 113.780 202.060,113.420 199.540,113.200 198.000 C 112.980 196.460,112.629 193.985,112.420 192.500 C 112.210 191.015,111.849 189.080,111.617 188.200 C 107.953 174.303,110.854 157.391,118.646 147.228 C 121.765 143.160,126.794 134.820,130.419 127.708 C 133.195 122.259,150.501 120.318,165.000 123.829 C 172.106 125.550,188.476 123.589,190.193 120.812 C 190.436 120.418,187.899 115.179,186.436 113.053 C 184.487 110.220,178.885 106.530,175.118 105.598 C 174.393 105.418,172.720 104.876,171.400 104.392 C 168.233 103.232,165.018 102.401,163.680 102.396 C 163.056 102.394,161.870 101.812,160.869 101.016 C 158.635 99.240,157.681 99.119,147.104 99.273 C 140.680 99.367,138.361 99.276,138.227 98.927 C 137.595 97.277,137.556 93.540,138.151 91.744 C 139.355 88.108,140.020 85.088,140.615 80.546 C 140.942 78.052,141.479 74.794,141.809 73.306 C 142.139 71.818,142.756 68.440,143.182 65.800 C 143.935 61.129,144.123 60.360,145.151 57.750 C 148.369 49.581,151.699 46.062,161.189 40.799 C 182.287 29.100,191.857 25.493,207.200 23.458 C 210.570 23.011,221.863 23.553,225.600 24.341 M236.265 316.376 C 234.009 317.699,233.352 318.285,233.716 318.649 C 234.093 319.027,238.400 316.330,238.400 315.715 C 238.400 315.077,238.566 315.025,236.265 316.376 " stroke="none" fill="#040404" fill-rule="evenodd"></path></g></svg>